<svg width="40" height="40" viewBox="0 0 40 40" fill="none" xmlns="http://www.w3.org/2000/svg">
<g clip-path="url(#clip0)">
<path d="M1.59998 1.59961C5.19998 1.59961 8.63998 3.03961 9.51997 4.39961L9.99998 5.19961L9.19998 8.39961H5.43998C5.43998 8.39961 4.31998 4.55961 1.59998 1.59961Z" stroke="#FCCD01" stroke-width="2" stroke-miterlimit="10" stroke-linecap="round" stroke-linejoin="round" fill="transparent"/>
<path d="M32.4 13.4402C34.24 12.0002 35.84 10.6402 39.2 11.2002C36.56 13.2802 36 16.8002 33.84 26.4002C31.04 38.3202 18.4 39.2002 18.4 39.2002M18.4 39.2002C21.04 37.8402 25.44 32.6402 25.6 24.7202M18.4 39.2002C18.08 32.5602 14.48 28.5602 11.2 28.0002M19.92 38.0802C19.92 38.0802 20.8 27.9202 17.44 23.9202" stroke="#FCCD01" stroke-width="2" stroke-miterlimit="10" stroke-linecap="round" stroke-linejoin="round" fill="transparent"/>
<path d="M15.44 8.16C15.04 8.08 14.64 8 14.24 8C12.88 8 11.68 8.56 10.8 9.12C9.91997 8.56 8.63997 8 7.35997 8C6.39997 8 5.51997 8.32 4.79997 8.88C2.79997 10.4 2.79997 12.96 3.19997 14.64C1.43997 16 0.319975 18.16 1.11997 20.72C1.83997 22.88 3.59997 24.16 6.07997 24.32C6.79997 26.16 8.31997 28.08 10.88 28.08C13.44 28.08 14.96 26.16 15.68 24.32C16.96 24.24 18 23.92 18.88 23.36" stroke="#FCCD01" stroke-width="2" stroke-miterlimit="10" stroke-linecap="round" stroke-linejoin="round" fill="transparent"/>
<path d="M13.6 19.4404C13.04 20.2404 12.16 20.8004 11.12 20.8004C9.43996 20.8004 8.07996 19.3604 8.07996 17.6004C8.07996 15.8404 9.43996 14.4004 11.12 14.4004C11.84 14.4004 12.56 14.6404 13.12 15.1204L13.6 19.4404Z" stroke="#FCCD01" stroke-width="2" stroke-miterlimit="10" stroke-linecap="round" stroke-linejoin="round" fill="transparent"/>
<path d="M25.2 5.6798C25.2 4.1598 24.72 2.6398 23.2 1.5998C22.4 1.0398 21.52 0.799805 20.56 0.799805C19.2 0.799805 18 1.3598 17.12 1.9198C16.32 1.3598 15.04 0.799805 13.76 0.799805C12.8 0.799805 11.92 1.1198 11.2 1.6798C9.19999 3.1998 9.19999 5.7598 9.59999 7.4398C9.27999 7.6798 9.03999 7.9198 8.79999 8.1598" stroke="#FCCD01" stroke-width="2" stroke-miterlimit="10" stroke-linecap="round" stroke-linejoin="round" fill="transparent"/>
<path d="M26.24 5.59961C24.88 5.59961 23.68 6.15961 22.8 6.71961C21.92 6.15961 20.64 5.59961 19.36 5.59961C18.4 5.59961 17.52 5.91961 16.8 6.47961C14.8 7.99961 14.8 10.5596 15.2 12.2396C13.44 13.5996 12.32 15.7596 13.12 18.3196C13.84 20.4796 15.6 21.7596 18.08 21.9196C18.8 23.7596 20.32 25.6796 22.88 25.6796C25.44 25.6796 26.96 23.7596 27.68 21.9196C30.32 21.8396 32.16 20.3996 32.72 18.2396C33.36 15.6796 32.08 13.7596 30.64 12.4796C31.04 10.3996 30.96 7.91961 28.8 6.39961C28 5.83961 27.12 5.59961 26.24 5.59961Z" stroke="#FCCD01" stroke-width="2" stroke-miterlimit="10" stroke-linecap="round" stroke-linejoin="round" fill="transparent"/>
<path d="M23.04 12C22.2337 12 21.4605 12.3371 20.8904 12.9373C20.3203 13.5374 20 14.3513 20 15.2C20 16.0487 20.3203 16.8626 20.8904 17.4627C21.4605 18.0629 22.2337 18.4 23.04 18.4C23.8463 18.4 24.6195 18.0629 25.1896 17.4627C25.7597 16.8626 26.08 16.0487 26.08 15.2C26.08 14.3513 25.7597 13.5374 25.1896 12.9373C24.6195 12.3371 23.8463 12 23.04 12Z" stroke="#FCCD01" stroke-width="2" stroke-miterlimit="10" stroke-linecap="round" stroke-linejoin="round" fill="transparent"/>
</g>
<defs>
<clipPath id="clip0">
<rect width="40" height="40" fill="white"/>
</clipPath>
</defs>
</svg>
