<svg width="40" height="40" viewBox="0 0 40 40" fill="none" xmlns="http://www.w3.org/2000/svg">
<g clip-path="url(#clip0)">
<path d="M5.04 39.2C5.04 39.2 3.68 38.8 2.4 37.6C1.12 36.4 0.800003 34.96 0.800003 34.96L10.72 25.04L14.96 29.28L5.04 39.2Z" stroke="#38C262" stroke-width="2" stroke-miterlimit="10" stroke-linejoin="round" fill="transparent"/>
<path d="M21.6 14.0796C22.88 13.6796 24.72 12.7996 25.04 11.0396C25.44 8.71956 22.4 7.03956 21.68 6.71956C21.6 6.63956 21.52 6.63956 21.52 6.63956C21.52 6.63956 22.16 2.15956 19.84 1.03956C17.52 -0.0804408 14.56 3.03956 14.56 3.03956C14.56 3.03956 14.4 2.95956 14.08 2.79956C13.04 2.31956 10.48 1.35956 8.96 3.03956C7.6 4.55956 8.24 6.95956 8.8 8.07956" stroke="#38C262" stroke-width="2" stroke-miterlimit="10" stroke-linecap="round" fill="transparent"/>
<path d="M25.6 39.2003C19.04 39.2003 20.72 34.5603 14.96 29.2803C17.04 31.4403 12.88 35.9203 16.32 39.2003" stroke="#38C262" stroke-width="2" stroke-miterlimit="10" stroke-linecap="round" stroke-linejoin="round"  fill="transparent"/>
<path d="M28.4 21.1204C30.72 20.9604 32.08 17.2004 32.08 17.2004C32.08 17.2004 36.24 17.5204 37.28 15.0404C38.24 12.8804 35.6 10.5604 34.96 10.0804C34.88 10.0004 34.8 10.0004 34.8 10.0004C34.8 10.0004 36.4 6.00041 34.32 4.40041C32.32 2.72041 28.72 5.12041 28.72 5.12041C28.72 5.12041 28.64 4.96041 28.4 4.80041C27.44 4.08041 25.2 2.56041 23.36 3.84041C22.24 4.56041 21.92 5.76041 21.92 6.88041M22.56 16.6404C23.52 16.8004 24.32 16.8004 24.32 16.8004C24.32 16.8004 24.4 17.2004 24.64 17.6804" stroke="#38C262" stroke-width="2" stroke-miterlimit="10" stroke-linecap="round" fill="transparent"/>
<path d="M13.1199 9.60027C13.1999 8.32027 14.3199 7.28027 15.5999 7.28027C16.9599 7.28027 18.0799 8.40027 18.0799 9.76027C18.0799 10.3203 17.9199 10.8803 17.5199 11.2803" stroke="#38C262" stroke-width="2" stroke-miterlimit="10" stroke-linecap="round"  fill="transparent"/>
<path d="M32 32.7202C34.08 32.0002 34.64 28.0802 34.64 28.0802C34.64 28.0802 38.72 27.4402 39.2 24.8002C39.6 22.4802 36.48 20.8002 35.76 20.4802C35.68 20.4002 35.6 20.4002 35.6 20.4002C35.6 20.4002 35.84 18.6402 35.36 17.0402M28.56 21.3602C28.88 21.2002 29.28 21.1202 29.68 21.1202C31.04 21.1202 32.16 22.2402 32.16 23.6002C32.16 24.9602 31.04 26.0802 29.68 26.0802C29.36 26.0802 29.04 26.0002 28.72 25.9202M28.4 9.2002C28.0743 9.2002 27.7518 9.26434 27.451 9.38897C27.1501 9.51361 26.8767 9.69628 26.6464 9.92657C26.4161 10.1569 26.2334 10.4303 26.1088 10.7311C25.9842 11.032 25.92 11.3545 25.92 11.6802C25.92 12.0059 25.9842 12.3284 26.1088 12.6293C26.2334 12.9301 26.4161 13.2035 26.6464 13.4338C26.8767 13.6641 27.1501 13.8468 27.451 13.9714C27.7518 14.096 28.0743 14.1602 28.4 14.1602C28.7257 14.1602 29.0482 14.096 29.3491 13.9714C29.65 13.8468 29.9233 13.6641 30.1536 13.4338C30.3839 13.2035 30.5666 12.9301 30.6912 12.6293C30.8159 12.3284 30.88 12.0059 30.88 11.6802C30.88 11.3545 30.8159 11.032 30.6912 10.7311C30.5666 10.4303 30.3839 10.1569 30.1536 9.92657C29.9233 9.69628 29.65 9.51361 29.3491 9.38897C29.0482 9.26434 28.7257 9.2002 28.4 9.2002Z" stroke="#38C262" stroke-width="2" stroke-miterlimit="10" stroke-linecap="round" fill="transparent"/>
<path d="M31.84 33.3604C31.84 33.3604 33.12 28.1604 28.4 25.6804C30.48 22.0804 25.68 16.9604 22.64 17.3604C22.4 12.0804 16.88 10.4804 14.32 11.2804C12.48 7.52042 6.63998 8.16042 6.63998 8.16042L10.72 25.0404L14.96 29.2804L31.84 33.3604Z" stroke="#38C262" stroke-width="2" stroke-miterlimit="10" stroke-linejoin="round" fill="transparent"/>
</g>
<defs>
<clipPath id="clip0">
<rect width="40" height="40" fill="white"/>
</clipPath>
</defs>
</svg>
