<svg width="22" height="15" viewBox="0 0 22 15" fill="none" xmlns="http://www.w3.org/2000/svg">
<path fill-rule="evenodd" clip-rule="evenodd" d="M5.71577 14.5003C7.42149 14.5003 8.80824 13.1524 8.80824 11.484C8.80824 9.8157 7.42149 8.46777 5.71577 8.46777C4.01004 8.46777 2.62329 9.8157 2.62329 11.484C2.62329 13.1524 4.01004 14.5003 5.71577 14.5003ZM5.71577 9.40031C6.9076 9.40031 7.86933 10.3351 7.86933 11.4832C7.86933 12.6313 6.9076 13.5662 5.71577 13.5662C4.52394 13.5662 3.56222 12.6313 3.56222 11.4832C3.56222 10.3351 4.52394 9.40031 5.71577 9.40031Z" fill="#918784"/>
<path fill-rule="evenodd" clip-rule="evenodd" d="M15.5522 14.5003C17.2579 14.5003 18.6447 13.1524 18.6447 11.484C18.6447 9.8157 17.2579 8.46777 15.5522 8.46777C13.8465 8.46777 12.4597 9.8157 12.4597 11.484C12.4597 13.1524 13.8465 14.5003 15.5522 14.5003ZM15.5527 9.40031C16.7445 9.40031 17.7063 10.3351 17.7063 11.4832C17.7063 12.6313 16.7445 13.5662 15.5527 13.5662C14.3609 13.5662 13.3991 12.6313 13.3991 11.4832C13.3991 10.3351 14.3609 9.40031 15.5527 9.40031Z" fill="#918784"/>
<path d="M18.4813 11.9504C18.6543 11.9502 18.8309 11.9496 18.8618 11.9477C19.3451 11.9174 19.7776 11.6378 19.996 11.2104L20.8704 9.50454C21.3469 8.57459 21.5952 7.54845 21.5952 6.50828C21.5952 5.63332 21.1975 4.80424 20.5106 4.24534L16.7403 1.17951C16.1997 0.740289 15.5199 0.5 14.8184 0.5H5.85805C4.85647 0.5 3.93926 1.05303 3.48984 1.93123L0.281046 8.19393C0.0964444 8.55423 0 8.95285 0 9.35664C0 10.7907 1.18834 11.9504 2.64914 11.9504H3.07125C3.33052 11.9504 3.54071 11.7414 3.54071 11.4837C3.54071 11.226 3.33052 11.0171 3.07125 11.0171H2.64914C1.70305 11.0171 0.93892 10.2714 0.93892 9.35664C0.93892 9.10024 1.00025 8.84675 1.1177 8.61752L4.3266 2.35462C4.61513 1.79081 5.20801 1.43333 5.85805 1.43333H14.8184C15.3036 1.43333 15.7735 1.59939 16.1459 1.90203L19.916 4.96765C20.3855 5.34973 20.6562 5.91405 20.6562 6.50828C20.6562 7.40106 20.4431 8.28206 20.0338 9.08087L19.1591 10.7872C19.0918 10.919 18.9563 11.0066 18.8027 11.0162C18.8043 11.0161 18.6595 11.0166 18.4813 11.0171C18.222 11.0171 18.0119 11.226 18.0119 11.4837C18.0119 11.7414 18.222 11.9504 18.4813 11.9504Z" fill="#918784"/>
<path d="M8.33909 11.9499H12.9294C13.1886 11.9499 13.3988 11.741 13.3988 11.4833C13.3988 11.2255 13.1886 11.0166 12.9294 11.0166H8.33909C8.07981 11.0166 7.86963 11.2255 7.86963 11.4833C7.86963 11.741 8.07981 11.9499 8.33909 11.9499Z" fill="#918784"/>
<path d="M14.8322 4.63368L15.7076 1.14917C15.7704 0.89912 15.6174 0.645792 15.3658 0.583349C15.1143 0.520907 14.8594 0.672996 14.7966 0.92305L13.9211 4.40832L13.4562 6.27236C13.3828 6.56668 13.6068 6.85133 13.9118 6.85133H20.9161C21.1754 6.85133 21.3855 6.64239 21.3855 6.38466C21.3855 6.12693 21.1754 5.91799 20.9161 5.91799H14.5119L14.8322 4.63368Z" fill="#918784"/>
<path d="M6.69912 2.41211H0.46946C0.210184 2.41211 0 2.62104 0 2.87878C0 3.13651 0.210184 3.34544 0.46946 3.34544H6.69912C6.9584 3.34544 7.16858 3.13651 7.16858 2.87878C7.16858 2.62104 6.9584 2.41211 6.69912 2.41211Z" fill="#918784"/>
<path d="M5.05974 4.9624H0.46946C0.210184 4.9624 0 5.17134 0 5.42907C0 5.6868 0.210184 5.89573 0.46946 5.89573H5.05974C5.31901 5.89573 5.5292 5.6868 5.5292 5.42907C5.5292 5.17134 5.31901 4.9624 5.05974 4.9624Z" fill="#918784"/>
<path d="M3.09248 7.51074H0.46946C0.210184 7.51074 0 7.71968 0 7.97741C0 8.23514 0.210184 8.44407 0.46946 8.44407H3.09248C3.35175 8.44407 3.56194 8.23514 3.56194 7.97741C3.56194 7.71968 3.35175 7.51074 3.09248 7.51074Z" fill="#918784"/>
</svg>
