<svg width="21" height="22" viewBox="0 0 21 22" fill="none" xmlns="http://www.w3.org/2000/svg">
<path d="M10.8457 21.0469C16.3828 21.0469 20.9531 16.4766 20.9531 10.9492C20.9531 5.42188 16.373 0.851562 10.8359 0.851562C5.30859 0.851562 0.748047 5.42188 0.748047 10.9492C0.748047 16.4766 5.31836 21.0469 10.8457 21.0469ZM10.8457 19.0352C6.36328 19.0352 2.7793 15.4316 2.7793 10.9492C2.7793 6.4668 6.36328 2.87305 10.8359 2.87305C15.3184 2.87305 18.9219 6.4668 18.9316 10.9492C18.9414 15.4316 15.3281 19.0352 10.8457 19.0352ZM8.62891 15.334H13.5801C14.0586 15.334 14.3809 15.041 14.3809 14.5723C14.3809 14.0938 14.0586 13.8203 13.5801 13.8203H10.4062V13.7422L12.457 11.6035C13.3945 10.666 13.9805 9.89453 13.9805 8.85938C13.9805 7.3457 12.7402 6.33984 10.875 6.33984C9.42969 6.33984 8.17969 7.16016 7.83789 8.27344C7.78906 8.41992 7.7793 8.55664 7.7793 8.70312C7.7793 9.15234 8.0918 9.43555 8.55078 9.43555C8.96094 9.43555 9.16602 9.20117 9.3418 8.91797C9.5957 8.38086 10.0547 7.82422 10.8945 7.82422C11.7051 7.82422 12.2324 8.29297 12.2324 9.00586C12.2324 9.64062 11.7148 10.1875 11.1191 10.793L8.16016 13.8594C7.90625 14.0938 7.81836 14.3281 7.81836 14.5918C7.81836 15.041 8.13086 15.334 8.62891 15.334Z" fill="#25272E"/>
</svg>
