<svg width="21" height="22" viewBox="0 0 21 22" fill="none" xmlns="http://www.w3.org/2000/svg">
<path d="M10.8457 21.0566C16.3828 21.0566 20.9531 16.4863 20.9531 10.959C20.9531 5.42188 16.373 0.851562 10.8359 0.851562C5.30859 0.851562 0.748047 5.42188 0.748047 10.959C0.748047 16.4863 5.31836 21.0566 10.8457 21.0566ZM10.8457 19.0352C6.36328 19.0352 2.7793 15.4414 2.7793 10.959C2.7793 6.47656 6.36328 2.87305 10.8359 2.87305C15.3184 2.87305 18.9219 6.47656 18.9316 10.959C18.9414 15.4414 15.3281 19.0352 10.8457 19.0352ZM10.7969 15.5684C12.9551 15.5684 14.2832 14.4844 14.2832 12.9316C14.2832 11.7988 13.4434 10.8906 12.2812 10.793V10.7051C13.2383 10.5586 14 9.67969 14 8.69336C14 7.31641 12.7207 6.34961 10.875 6.34961C9.24414 6.34961 8.0332 7.0625 7.75 8.18555C7.70117 8.33203 7.69141 8.44922 7.69141 8.60547C7.69141 9.06445 8.01367 9.35742 8.49219 9.35742C8.87305 9.35742 9.10742 9.19141 9.26367 8.83984C9.48828 8.18555 10.0449 7.78516 10.8457 7.78516C11.7051 7.78516 12.2422 8.20508 12.2422 8.89844C12.2422 9.61133 11.6465 10.1289 10.8066 10.1289H10.3086C9.84961 10.1289 9.54688 10.4121 9.54688 10.8418C9.54688 11.2617 9.85938 11.5547 10.3086 11.5547H10.8555C11.8418 11.5547 12.5059 12.0723 12.5059 12.8438C12.5059 13.6055 11.832 14.1133 10.8359 14.1133C9.88867 14.1133 9.35156 13.6641 9.10742 13.0586C8.94141 12.707 8.69727 12.541 8.33594 12.541C7.84766 12.541 7.52539 12.8535 7.52539 13.3125C7.52539 13.4688 7.54492 13.5664 7.58398 13.7129C7.89648 14.8164 9.19531 15.5684 10.7969 15.5684Z" fill="#25272E"/>
</svg>
