<svg width="21" height="22" viewBox="0 0 21 22" fill="none" xmlns="http://www.w3.org/2000/svg">
<path d="M10.8457 21.0469C16.3828 21.0469 20.9531 16.4766 20.9531 10.9492C20.9531 5.42188 16.373 0.851562 10.8359 0.851562C5.30859 0.851562 0.748047 5.42188 0.748047 10.9492C0.748047 16.4766 5.31836 21.0469 10.8457 21.0469ZM10.8457 19.0352C6.36328 19.0352 2.7793 15.4316 2.7793 10.9492C2.7793 6.4668 6.36328 2.87305 10.8359 2.87305C15.3184 2.87305 18.9219 6.4668 18.9316 10.9492C18.9414 15.4316 15.3281 19.0352 10.8457 19.0352ZM11.3828 15.3926C11.9785 15.3926 12.3398 15.0312 12.3398 14.3574V7.54102C12.3398 6.89648 11.9395 6.50586 11.3047 6.50586C10.875 6.50586 10.5625 6.61328 10.084 6.93555L8.4043 8.06836C8.14062 8.25391 8.02344 8.43945 8.02344 8.74219C8.02344 9.10352 8.29688 9.41602 8.67773 9.41602C8.84375 9.41602 8.96094 9.39648 9.20508 9.23047L10.3672 8.45898H10.4453V14.3574C10.4453 15.0312 10.8066 15.3926 11.3828 15.3926Z" fill="#25272E"/>
</svg>
