<svg width="21" height="22" viewBox="0 0 21 22" fill="none" xmlns="http://www.w3.org/2000/svg">
<path d="M10.8457 21.0469C16.3828 21.0469 20.9531 16.4766 20.9531 10.9492C20.9531 5.42188 16.373 0.851562 10.8359 0.851562C5.30859 0.851562 0.748047 5.42188 0.748047 10.9492C0.748047 16.4766 5.31836 21.0469 10.8457 21.0469ZM10.8457 19.0352C6.36328 19.0352 2.7793 15.4316 2.7793 10.9492C2.7793 6.4668 6.36328 2.87305 10.8359 2.87305C15.3184 2.87305 18.9219 6.4668 18.9316 10.9492C18.9414 15.4316 15.3281 19.0352 10.8457 19.0352ZM12.1152 15.3926C12.6426 15.3926 12.9551 15.0703 12.9551 14.4746V13.6641H13.5801C14.0488 13.6641 14.3613 13.3711 14.3613 12.9219C14.3613 12.4727 14.0586 12.1699 13.5801 12.1699H12.9551V7.55078C12.9551 6.83789 12.3887 6.33984 11.5781 6.33984C10.7578 6.33984 10.2793 6.62305 9.83008 7.3457C8.91211 8.75195 7.81836 10.3926 7.10547 11.5938C6.90039 11.9648 6.82227 12.2578 6.82227 12.5703C6.82227 13.2344 7.28125 13.6641 7.99414 13.6641H11.2949V14.4746C11.2949 15.0605 11.6074 15.3926 12.1152 15.3926ZM11.2949 12.1699H8.50195V12.1113C9.16602 10.9297 10.2988 9.20117 11.2168 7.76562H11.2949V12.1699Z" fill="#25272E"/>
</svg>
