<svg width="12" height="12" viewBox="0 0 12 12" fill="none" xmlns="http://www.w3.org/2000/svg">
<path d="M0.224286 0.224285C-0.0747619 0.523333 -0.0747618 1.00818 0.224286 1.30723L4.91705 6L0.224286 10.6928C-0.0747618 10.9918 -0.0747619 11.4767 0.224286 11.7757C0.523333 12.0748 1.00818 12.0748 1.30723 11.7757L6 7.08295L10.6928 11.7757C10.9918 12.0748 11.4767 12.0748 11.7757 11.7757C12.0748 11.4767 12.0748 10.9918 11.7757 10.6928L7.08295 6L11.7757 1.30723C12.0748 1.00818 12.0748 0.523333 11.7757 0.224285C11.4767 -0.074762 10.9918 -0.0747616 10.6928 0.224285L6 4.91705L1.30723 0.224285C1.00818 -0.0747619 0.523333 -0.0747616 0.224286 0.224285Z" fill="currentColor"/>
</svg>