<svg width="14" height="15" viewBox="0 0 14 15" fill="none" xmlns="http://www.w3.org/2000/svg">
<path d="M7.03516 14.0044C7.44189 14.0044 7.78223 13.6807 7.78223 13.2822V7.76221H13.1445C13.543 7.76221 13.8833 7.42188 13.8833 7.01514C13.8833 6.6084 13.543 6.27637 13.1445 6.27637H7.78223V0.748047C7.78223 0.349609 7.44189 0.0258789 7.03516 0.0258789C6.62842 0.0258789 6.29639 0.349609 6.29639 0.748047V6.27637H0.925781C0.527344 6.27637 0.187012 6.6084 0.187012 7.01514C0.187012 7.42188 0.527344 7.76221 0.925781 7.76221H6.29639V13.2822C6.29639 13.6807 6.62842 14.0044 7.03516 14.0044Z" fill="#70747D"/>
</svg>
