<svg width="24" height="16" viewBox="0 0 24 16" fill="none" xmlns="http://www.w3.org/2000/svg">
<path fill-rule="evenodd" clip-rule="evenodd" d="M6.35189 15.5593C8.24757 15.5593 9.78874 14.0612 9.78874 12.2071C9.78874 10.353 8.24757 8.85498 6.35189 8.85498C4.45621 8.85498 2.91504 10.353 2.91504 12.2071C2.91504 14.0612 4.45621 15.5593 6.35189 15.5593ZM6.35285 9.89209C7.6774 9.89209 8.74622 10.931 8.74622 12.207C8.74622 13.4829 7.6774 14.5218 6.35285 14.5218C5.0283 14.5218 3.95947 13.4829 3.95947 12.207C3.95947 10.931 5.0283 9.89209 6.35285 9.89209Z" fill="#25272E"/>
<path fill-rule="evenodd" clip-rule="evenodd" d="M17.284 15.5593C19.1797 15.5593 20.7209 14.0612 20.7209 12.2071C20.7209 10.353 19.1797 8.85498 17.284 8.85498C15.3883 8.85498 13.8472 10.353 13.8472 12.2071C13.8472 14.0612 15.3883 15.5593 17.284 15.5593ZM17.285 9.89209C18.6095 9.89209 19.6784 10.931 19.6784 12.207C19.6784 13.4829 18.6095 14.5218 17.285 14.5218C15.9604 14.5218 14.8916 13.4829 14.8916 12.207C14.8916 10.931 15.9604 9.89209 17.285 9.89209Z" fill="#25272E"/>
<path d="M20.5394 12.7255C20.7316 12.7253 20.9279 12.7246 20.9622 12.7225C21.4994 12.6888 21.98 12.3781 22.2227 11.9031L23.1945 10.0073C23.7241 8.97377 24 7.83337 24 6.67736C24 5.70496 23.558 4.78356 22.7947 4.16242L18.6045 0.755182C18.0037 0.267048 17.2482 0 16.4685 0H6.5104C5.39729 0 4.37793 0.614621 3.87847 1.59062L0.312343 8.55073C0.107184 8.95114 0 9.39416 0 9.84292C0 11.4367 1.32067 12.7255 2.94415 12.7255H3.41326C3.70141 12.7255 3.935 12.4933 3.935 12.2069C3.935 11.9204 3.70141 11.6882 3.41326 11.6882H2.94415C1.8927 11.6882 1.04348 10.8595 1.04348 9.84292C1.04348 9.55797 1.11164 9.27624 1.24217 9.02149L4.80841 2.06115C5.12907 1.43455 5.78797 1.03727 6.5104 1.03727H16.4685C17.0078 1.03727 17.53 1.22182 17.9439 1.55816L22.1338 4.96517C22.6557 5.38979 22.9565 6.01696 22.9565 6.67736C22.9565 7.66956 22.7196 8.64867 22.2648 9.53644L21.2927 11.4328C21.2178 11.5792 21.0672 11.6766 20.8966 11.6872C20.8983 11.6871 20.7375 11.6877 20.5394 11.6882C20.2512 11.6882 20.0177 11.9204 20.0177 12.2069C20.0177 12.4933 20.2512 12.7255 20.5394 12.7255Z" fill="#25272E"/>
<path d="M9.26832 12.7253H14.3698C14.6579 12.7253 14.8915 12.4931 14.8915 12.2066C14.8915 11.9202 14.6579 11.688 14.3698 11.688H9.26832C8.98017 11.688 8.74658 11.9202 8.74658 12.2066C8.74658 12.4931 8.98017 12.7253 9.26832 12.7253Z" fill="#25272E"/>
<path d="M16.4833 4.59459L17.4562 0.722045C17.526 0.444146 17.3559 0.162607 17.0764 0.0932108C16.7968 0.0238148 16.5136 0.192841 16.4438 0.47074L15.4707 4.34413L14.9541 6.41575C14.8725 6.74284 15.1215 7.05919 15.4605 7.05919H23.2447C23.5329 7.05919 23.7665 6.82699 23.7665 6.54055C23.7665 6.25412 23.5329 6.02192 23.2447 6.02192H16.1274L16.4833 4.59459Z" fill="#25272E"/>
<path d="M7.44513 2.12549H0.521739C0.233591 2.12549 0 2.35769 0 2.64412C0 2.93056 0.233591 3.16276 0.521739 3.16276H7.44513C7.73328 3.16276 7.96687 2.93056 7.96687 2.64412C7.96687 2.35769 7.73328 2.12549 7.44513 2.12549Z" fill="#25272E"/>
<path d="M5.62319 4.95996H0.521739C0.233591 4.95996 0 5.19216 0 5.47859C0 5.76503 0.233591 5.99723 0.521739 5.99723H5.62319C5.91134 5.99723 6.14493 5.76503 6.14493 5.47859C6.14493 5.19216 5.91134 4.95996 5.62319 4.95996Z" fill="#25272E"/>
<path d="M3.43685 7.7915H0.521739C0.233591 7.7915 0 8.0237 0 8.31014C0 8.59657 0.233591 8.82877 0.521739 8.82877H3.43685C3.725 8.82877 3.95859 8.59657 3.95859 8.31014C3.95859 8.0237 3.725 7.7915 3.43685 7.7915Z" fill="#25272E"/>
</svg>
