<svg width="34" height="28" viewBox="0 0 34 28" fill="none" xmlns="http://www.w3.org/2000/svg">
<path fill-rule="evenodd" clip-rule="evenodd" d="M13.5217 23.2618C13.5217 25.5672 11.6531 27.4357 9.34774 27.4357C7.04235 27.4357 5.17383 25.5672 5.17383 23.2618C5.17383 20.9564 7.04235 19.0879 9.34774 19.0879C11.6531 19.0879 13.5217 20.9564 13.5217 23.2618Z" stroke="#25272E" stroke-linecap="round" stroke-linejoin="round" fill="transparent"/>
<path fill-rule="evenodd" clip-rule="evenodd" d="M28.8261 23.2618C28.8261 25.5672 26.9576 27.4357 24.6522 27.4357C22.3468 27.4357 20.4783 25.5672 20.4783 23.2618C20.4783 20.9564 22.3468 19.0879 24.6522 19.0879C26.9576 19.0879 28.8261 20.9564 28.8261 23.2618Z" stroke="#25272E" stroke-linecap="round" stroke-linejoin="round" fill="transparent"/>
<path d="M3.78261 13.5234L1.35617 18.3749C1.12243 18.8452 1 19.3614 1 19.8859C1 21.7516 2.51235 23.2626 4.3767 23.2626H5.17391" stroke="#25272E" stroke-linecap="round" stroke-linejoin="round" fill="transparent"/>
<path d="M29.3576 23.2601C29.8849 23.2601 30.3677 22.9624 30.6028 22.4907L31.9566 19.7818C32.6425 18.41 33 16.8963 33 15.3617C33 14.1958 32.4825 13.0883 31.5865 12.3425L25.7458 7.47576C25.039 6.88724 24.1486 6.56445 23.2303 6.56445H14.9131" stroke="#25272E" stroke-linecap="round" stroke-linejoin="round" fill="transparent"/>
<path d="M13.5217 23.2588H20.4783" stroke="#25272E" stroke-linecap="round" stroke-linejoin="round" fill="transparent"/>
<path fill-rule="evenodd" clip-rule="evenodd" d="M23.2609 9.34668L21.8696 14.9119H30.2175L23.2609 9.34668Z" stroke="#25272E" stroke-linecap="round" stroke-linejoin="round" fill="transparent"/>
<path fill-rule="evenodd" clip-rule="evenodd" d="M1 7.95652C1 4.11513 4.11374 1 7.95652 1C11.7993 1 14.913 4.11513 14.913 7.95652C14.913 11.7979 11.7993 14.913 7.95652 14.913C4.11374 14.913 1 11.7979 1 7.95652Z" stroke="#25272E" stroke-linecap="round" stroke-linejoin="round" fill="transparent"/>
<path d="M4.47827 8.65273L6.56523 10.7397L11.4348 5.87012" stroke="#25272E" stroke-linecap="round" stroke-linejoin="round" fill="transparent"/>
</svg>
