<svg width="30" height="30" viewBox="0 0 30 30" fill="none" xmlns="http://www.w3.org/2000/svg">
<path d="M28.7182 16.918L26.5107 19.0625L26.7629 22.153C26.826 22.5945 26.5107 22.973 26.1322 23.0991L23.1678 23.919L21.9695 26.7573C21.7802 27.1357 21.4018 27.388 20.9603 27.2619L17.9329 26.6311L15.5361 28.5864C15.41 28.7125 15.2208 28.7756 15.0315 28.7756C14.8423 28.7756 14.6531 28.7125 14.4639 28.5864L12.0671 26.6311L9.03969 27.2619C8.66125 27.3249 8.21975 27.1357 8.03053 26.7573L6.83216 23.919L3.86777 23.0991C3.48934 22.973 3.17398 22.5945 3.23705 22.153L3.48934 19.0625L1.28182 16.918C0.966457 16.6027 0.903385 16.1612 1.15567 15.7827L2.79555 13.1968L1.78639 10.2955C1.66025 9.91703 1.84947 9.47552 2.16483 9.22323L4.94 7.7095L5.44458 4.68204C5.50765 4.24054 5.88608 3.98825 6.26451 3.92518L9.35505 3.8621L11.1841 1.40229C11.4364 1.02386 11.8779 0.960788 12.2564 1.08693L15.0315 2.41145L17.8067 1.08693C18.1851 0.897716 18.6266 1.02386 18.8789 1.40229L20.708 3.8621L23.7986 3.98825C24.2401 3.98825 24.5554 4.30361 24.6185 4.74511L25.1231 7.77257L27.7721 9.2863C28.1505 9.47552 28.2767 9.91703 28.1505 10.3585L27.2044 13.2598L28.8443 15.8458C29.0966 16.1612 29.0335 16.6657 28.7182 16.918Z" stroke="black" stroke-miterlimit="10" stroke-linecap="round" fill="transparent"/>
<path d="M11.2087 21.834L18.8944 7.96094" stroke="black" fill="transparent"/>
<rect x="10" y="8.59961" width="3.1" height="5.7" rx="1.55" stroke="black" fill="transparent"/>
<rect x="16.95" y="15.5498" width="3.1" height="5.7" rx="1.55" stroke="black" fill="transparent"/>
</svg>
