<svg width="40" height="40" viewBox="0 0 40 40" fill="none" xmlns="http://www.w3.org/2000/svg">
<path d="M37.36 22.5604L34.56 25.2804L34.88 29.2004C34.96 29.7604 34.56 30.2404 34.08 30.4004L30.32 31.4404L28.8 35.0404C28.56 35.5204 28.08 35.8404 27.52 35.6804L23.68 34.8804L20.64 37.3604C20.48 37.5204 20.24 37.6004 20 37.6004C19.76 37.6004 19.52 37.5204 19.28 37.3604L16.24 34.8804L12.4 35.6804C11.92 35.7604 11.36 35.5204 11.12 35.0404L9.60001 31.4404L5.84001 30.4004C5.36001 30.2404 4.96001 29.7604 5.04001 29.2004L5.36001 25.2804L2.56001 22.5604C2.16001 22.1604 2.08001 21.6004 2.40001 21.1204L4.48001 17.8404L3.20001 14.1604C3.04001 13.6804 3.28001 13.1204 3.68001 12.8004L7.20001 10.8804L7.84001 7.04038C7.92001 6.48038 8.40001 6.16038 8.88001 6.08038L12.8 6.00038L15.12 2.88038C15.44 2.40038 16 2.32038 16.48 2.48038L20 4.16038L23.52 2.48038C24 2.24038 24.56 2.40038 24.88 2.88038L27.2 6.00038L31.12 6.16038C31.68 6.16038 32.08 6.56038 32.16 7.12038L32.8 10.9604L36.16 12.8804C36.64 13.1204 36.8 13.6804 36.64 14.2404L35.44 17.9204L37.52 21.2004C37.84 21.6004 37.76 22.2404 37.36 22.5604Z" stroke="#FF323D" stroke-width="2" stroke-miterlimit="10" stroke-linecap="round" fill="transparent"/>
<path d="M18.24 13.1202C17.84 12.0002 16.88 11.2002 15.6 11.2002C14.32 11.2002 13.36 11.9202 12.96 13.1202C12.8 13.6002 12.8 13.8402 12.8 15.6002C12.8 17.3602 12.88 17.6802 12.96 18.0802C13.36 19.2002 14.32 20.0002 15.6 20.0002C16.88 20.0002 17.84 19.2802 18.24 18.0802C18.4 17.6002 18.4 17.3602 18.4 15.6002C18.4 13.8402 18.32 13.5202 18.24 13.1202ZM16.72 17.6002C16.56 18.1602 16.16 18.4002 15.6 18.4002C15.04 18.4002 14.64 18.0802 14.48 17.6002C14.4 17.3602 14.4 17.1202 14.4 15.6802C14.4 14.1602 14.48 13.9202 14.48 13.6802C14.64 13.1202 15.04 12.8802 15.6 12.8802C16.16 12.8802 16.56 13.2002 16.72 13.6802C16.8 13.9202 16.8 14.1602 16.8 15.6802C16.8 17.1202 16.72 17.3602 16.72 17.6002ZM27.04 21.9202C26.64 20.8002 25.68 20.0002 24.4 20.0002C23.12 20.0002 22.16 20.7202 21.76 21.9202C21.6 22.4002 21.6 22.6402 21.6 24.4002C21.6 26.1602 21.68 26.4802 21.76 26.8802C22.16 28.0002 23.12 28.8002 24.4 28.8002C25.68 28.8002 26.64 28.0802 27.04 26.8802C27.2 26.4002 27.2 26.1602 27.2 24.4002C27.2 22.6402 27.12 22.3202 27.04 21.9202ZM25.52 26.4002C25.36 26.9602 24.96 27.2002 24.4 27.2002C23.84 27.2002 23.44 26.8802 23.28 26.4002C23.2 26.1602 23.2 25.9202 23.2 24.4802C23.2 22.9602 23.28 22.7202 23.28 22.4802C23.44 21.9202 23.84 21.6802 24.4 21.6802C24.96 21.6802 25.36 22.0002 25.52 22.4802C25.6 22.7202 25.6 22.9602 25.6 24.4802C25.6 25.9202 25.52 26.1602 25.52 26.4002ZM23.92 11.4402C24 11.2802 24.08 11.2002 24.32 11.2002H25.44C25.6 11.2002 25.6 11.3602 25.6 11.4402L16.08 28.5602C16 28.7202 15.92 28.8002 15.76 28.8002H14.64C14.48 28.8002 14.4 28.6402 14.48 28.5602L23.92 11.4402Z" fill="#FF323D"/>
</svg>
