<svg width="20" height="18" viewBox="0 0 20 18" fill="none" xmlns="http://www.w3.org/2000/svg">
<path d="M9.49123 16.8784L9.43744 16.8377L9.43039 16.8322C8.07223 15.7658 5.97984 14.0655 4.22989 12.0253C2.46257 9.96481 1.15002 7.67804 1.15002 5.43613C1.15002 2.95835 3.15818 0.950195 5.63596 0.950195C6.79155 0.950195 7.72131 1.45093 8.38426 1.98447C8.71393 2.2498 8.96775 2.51573 9.1378 2.71378C9.22248 2.81239 9.28538 2.89301 9.32557 2.94667C9.34564 2.97346 9.35996 2.99343 9.36842 3.00543L9.37657 3.0171L9.37667 3.01727C9.37686 3.01754 9.37689 3.01757 9.37701 3.01775C9.37717 3.01799 9.3774 3.01833 9.37745 3.01841L9.37746 3.01842L10 3.95224L10.6226 3.01842C10.6226 3.01847 10.6226 3.01847 10.6226 3.01841L10.6226 3.01837L10.623 3.01775C10.6232 3.01757 10.6232 3.01754 10.6234 3.01727L10.6235 3.0171L10.6316 3.00543C10.6401 2.99343 10.6544 2.97346 10.6745 2.94667C10.7147 2.89301 10.7776 2.81239 10.8622 2.71378C11.0323 2.51573 11.2861 2.2498 11.6158 1.98447C12.2787 1.45093 13.2085 0.950195 14.3641 0.950195C16.8419 0.950195 18.85 2.95835 18.85 5.43613C18.85 7.68343 17.5305 9.9762 15.7565 12.0407C14 14.0848 11.9021 15.7865 10.5479 16.8493L10.5261 16.8664L10.5254 16.867L10.5104 16.8784C10.3634 16.9894 10.1844 17.0497 10.0003 17.0502C9.81651 17.0495 9.63789 16.9892 9.49123 16.8784Z" stroke="currentColor" fill="transparent" stroke-width="1.5"/>
</svg>
