<svg width="28" height="18" viewBox="0 0 28 18" fill="none" xmlns="http://www.w3.org/2000/svg">
<path d="M17.8634 1.81934H9.67191V15.1985H17.8634V1.81934Z" fill="#FF5F00"/>
<path d="M10.5158 8.50948C10.5148 7.22119 10.8069 5.94954 11.3699 4.79077C11.9329 3.63201 12.7521 2.61649 13.7655 1.82108C12.5103 0.834648 11.003 0.221247 9.41568 0.0509785C7.82839 -0.11929 6.22521 0.160445 4.78938 0.858212C3.35355 1.55598 2.14299 2.64363 1.29606 3.99685C0.44913 5.35007 0 6.91426 0 8.51066C0 10.1071 0.44913 11.6713 1.29606 13.0245C2.14299 14.3777 3.35355 15.4653 4.78938 16.1631C6.22521 16.8609 7.82839 17.1406 9.41568 16.9703C11.003 16.8001 12.5103 16.1867 13.7655 15.2002C12.7518 14.4046 11.9324 13.3887 11.3694 12.2295C10.8063 11.0703 10.5145 9.79818 10.5158 8.50948Z" fill="#EB001B"/>
<path d="M27.5329 8.51039C27.5328 10.1069 27.0836 11.6712 26.2365 13.0245C25.3895 14.3777 24.1787 15.4654 22.7427 16.163C21.3067 16.8607 19.7033 17.1403 18.116 16.9697C16.5286 16.7992 15.0212 16.1855 13.7661 15.1988C14.7791 14.4027 15.5981 13.3869 16.1613 12.228C16.7244 11.0692 17.017 9.79762 17.017 8.5092C17.017 7.22079 16.7244 5.94919 16.1613 4.79037C15.5981 3.63154 14.7791 2.61574 13.7661 1.81962C15.0212 0.832882 16.5286 0.219182 18.116 0.0486697C19.7033 -0.121843 21.3067 0.157712 22.7427 0.85538C24.1787 1.55305 25.3895 2.64068 26.2365 3.99394C27.0836 5.34721 27.5328 6.9115 27.5329 8.50802V8.51039Z" fill="#F79E1B"/>
</svg>
