<svg width="24" height="24" viewBox="0 0 24 24" fill="none" xmlns="http://www.w3.org/2000/svg">
<rect width="24" height="24" rx="12" fill="#1F2533"/>
<path d="M11.9932 17.9365C12.4922 17.9365 12.9023 17.5127 12.9023 17.0479V12.9805H16.8877C17.3662 12.9805 17.7832 12.5703 17.7832 12.0713C17.7832 11.5791 17.3662 11.1621 16.8877 11.1621H12.9023V7.09473C12.9023 6.61621 12.4922 6.20605 11.9932 6.20605C11.501 6.20605 11.0908 6.61621 11.0908 7.09473V11.1621H7.10547C6.64062 11.1621 6.20996 11.5791 6.20996 12.0713C6.20996 12.5703 6.64062 12.9805 7.10547 12.9805H11.0908V17.0479C11.0908 17.5127 11.501 17.9365 11.9932 17.9365Z" fill="white"/>
</svg>
