<svg width="20" height="20" viewBox="0 0 20 20" fill="none" xmlns="http://www.w3.org/2000/svg">
<rect x="0.5" y="0.5" width="19" height="19" rx="9.5" stroke="#1F2533" fill="none"/>
<path d="M8.98926 14.8301C9.24805 14.8301 9.44824 14.7227 9.58984 14.5127L14.1797 7.36426C14.2822 7.20312 14.3262 7.06641 14.3262 6.93457C14.3262 6.58789 14.082 6.34863 13.7305 6.34863C13.4912 6.34863 13.3447 6.43652 13.1982 6.66602L8.96484 13.3799L6.79199 10.5918C6.64551 10.4014 6.49414 10.3232 6.2793 10.3232C5.92773 10.3232 5.67383 10.5723 5.67383 10.9141C5.67383 11.0654 5.72754 11.2119 5.85449 11.3633L8.38379 14.5176C8.55469 14.7324 8.73535 14.8301 8.98926 14.8301Z" fill="#1F2533"/>
</svg>
