<svg width="28" height="28" viewBox="0 0 28 28" fill="none" xmlns="http://www.w3.org/2000/svg">
<path d="M7 2.33313L3.5 6.9998V23.3331C3.5 23.952 3.74583 24.5455 4.18342 24.983C4.621 25.4206 5.21449 25.6665 5.83333 25.6665H22.1667C22.7855 25.6665 23.379 25.4206 23.8166 24.983C24.2542 24.5455 24.5 23.952 24.5 23.3331V6.9998L21 2.33313H7Z" stroke="#25272E" stroke-width="2" stroke-linecap="round" stroke-linejoin="round" fill="transparent"/>
<path d="M3.5 7H24.5" fill="transparent" stroke="#25272E" stroke-width="2" stroke-linecap="round" stroke-linejoin="round"/>
<path d="M18.6667 11.6669C18.6667 12.9045 18.175 14.0915 17.2999 14.9667C16.4247 15.8419 15.2377 16.3335 14 16.3335C12.7624 16.3335 11.5754 15.8419 10.7002 14.9667C9.82504 14.0915 9.33337 12.9045 9.33337 11.6669" stroke="#25272E" stroke-width="2" stroke-linecap="round" stroke-linejoin="round"  fill="transparent"/>
</svg>
