<svg width="11" height="18" viewBox="0 0 11 18" fill="none" xmlns="http://www.w3.org/2000/svg">
<path d="M1.61328 17.4355C1.86719 17.4355 2.08203 17.3379 2.24805 17.1719L9.99219 9.60352C10.1777 9.41797 10.2754 9.19336 10.2754 8.94922C10.2754 8.69531 10.1777 8.46094 9.99219 8.29492L2.25781 0.736328C2.08203 0.560547 1.86719 0.462891 1.61328 0.462891C1.10547 0.462891 0.724609 0.853516 0.724609 1.36133C0.724609 1.5957 0.822266 1.83008 0.978516 1.99609L8.08789 8.94922L0.978516 15.9023C0.822266 16.0684 0.724609 16.293 0.724609 16.5371C0.724609 17.0449 1.10547 17.4355 1.61328 17.4355Z" fill="white"/>
</svg>
