<svg width="9" height="16" viewBox="0 0 9 16" fill="none" xmlns="http://www.w3.org/2000/svg">
<path d="M7.26416 14.9878C7.40527 15.1289 7.58789 15.2119 7.80371 15.2119C8.23535 15.2119 8.55908 14.8882 8.55908 14.4565C8.55908 14.249 8.47607 14.0581 8.34326 13.917L2.30029 8.00684L8.34326 2.09668C8.47607 1.95557 8.55908 1.75635 8.55908 1.55713C8.55908 1.12549 8.23535 0.793457 7.80371 0.793457C7.58789 0.793457 7.40527 0.876465 7.26416 1.01758L0.689941 7.45068C0.532227 7.5835 0.440918 7.79102 0.440918 8.00684C0.440918 8.21436 0.523926 8.40527 0.681641 8.56299L7.26416 14.9878Z" fill="white"/>
</svg>
