<svg width="9" height="16" viewBox="0 0 9 16" fill="none" xmlns="http://www.w3.org/2000/svg">
<path d="M8.61328 8.00684C8.61328 8.21436 8.53857 8.39697 8.38086 8.55469L1.79834 14.9878C1.65723 15.1372 1.47461 15.2119 1.25879 15.2119C0.827148 15.2119 0.495117 14.8882 0.495117 14.4565C0.495117 14.2407 0.586426 14.0581 0.719238 13.917L6.76221 8.00684L0.719238 2.09668C0.586426 1.95557 0.495117 1.76465 0.495117 1.55713C0.495117 1.12549 0.827148 0.801758 1.25879 0.801758C1.47461 0.801758 1.65723 0.876465 1.79834 1.01758L8.38086 7.45898C8.53857 7.6084 8.61328 7.79932 8.61328 8.00684Z" fill="#1F2533"/>
</svg>
