<svg width="22" height="21" viewBox="0 0 22 21" fill="transparent" xmlns="http://www.w3.org/2000/svg">
<path d="M10.367 19.0495L10.3669 19.0494L10.3587 19.043C8.80262 17.8211 6.4063 15.8738 4.40241 13.5375C2.37817 11.1776 0.877841 8.56159 0.877841 5.99951C0.877841 3.17058 3.17058 0.877841 5.99951 0.877841C7.31805 0.877841 8.37943 1.44915 9.13702 2.05887C9.51371 2.36203 9.80375 2.66591 9.99803 2.89218C10.0948 3.00483 10.1666 3.09688 10.2124 3.15807C10.2353 3.18863 10.2516 3.21136 10.2612 3.22497L10.2705 3.23834C10.2707 3.23868 10.2707 3.23853 10.2708 3.23874C10.2709 3.23888 10.2712 3.23941 10.2713 3.23949C10.2714 3.23963 10.2714 3.23965 10.2713 3.23955L11 4.33251L11.7287 3.23955C11.7286 3.2397 11.7289 3.23915 11.7292 3.23874C11.7293 3.23853 11.7293 3.23868 11.7295 3.23834L11.7388 3.22497C11.7484 3.21136 11.7647 3.18863 11.7876 3.15807C11.8334 3.09688 11.9052 3.00483 12.002 2.89218C12.1963 2.66591 12.4863 2.36203 12.863 2.05887C13.6206 1.44915 14.682 0.877841 16.0005 0.877841C18.8294 0.877841 21.1222 3.17058 21.1222 5.99951C21.1222 8.56775 19.6139 11.1906 17.5819 13.5553C15.5705 15.896 13.168 17.8448 11.6164 19.0625L11.5909 19.0826L11.5902 19.0831L11.5737 19.0957C11.4085 19.2205 11.2073 19.2882 11.0004 19.2888C10.7938 19.288 10.593 19.2202 10.4281 19.0957L10.367 19.0495Z" stroke="white" stroke-width="1.75568" fill="none"/>
</svg>
