<svg width="62" height="61" viewBox="0 0 62 61" fill="none" xmlns="http://www.w3.org/2000/svg">
<g clip-path="url(#clip0)">
<path d="M42.0352 8.38344L44.1791 14.6492L50.5177 16.5697L49.2415 23.069L53.77 27.9011L49.4165 32.8911L50.9219 39.3409L44.6561 41.4847L42.7356 47.8234L36.2363 46.5472L31.4042 51.0757L26.4142 46.7222L19.9644 48.2276L17.8206 41.9618L11.4819 40.0413L12.7581 33.542L8.2296 28.7099L12.5831 23.7199L11.0777 17.2701L17.3435 15.1263L19.264 8.7876L25.7633 10.0638L30.5954 5.5353L35.5854 9.88881L42.0352 8.38344Z" fill="url(#paint0_linear)"/>
<path d="M20.6568 29.849L24.2635 26.296L22.8111 21.6053L24.5227 22.0321L25.1587 24.3425L25.4213 25.4716L25.4446 25.4774C25.685 25.1746 25.939 24.8834 26.2066 24.6038L27.8644 22.8652L29.576 23.292L26.0799 26.7489L27.608 31.5821L25.9313 31.1641L25.1934 28.6179L24.9249 27.5121L24.9016 27.5063C24.6632 27.8014 24.415 28.0858 24.1571 28.3596L22.3218 30.2641L20.6568 29.849ZM28.438 31.7891L29.9185 25.8509L31.3274 26.2021L30.5349 29.3808C30.4632 29.668 30.3926 29.9019 30.3228 30.0824L30.3461 30.0882C30.3946 30.0261 30.6011 29.8261 30.9657 29.4882L33.9588 26.8582L35.391 27.2153L33.9104 33.1535L32.5016 32.8022L33.2912 29.6352C33.3338 29.4644 33.4044 29.2306 33.5032 28.9336L33.4799 28.9278C33.4431 28.9764 33.2366 29.1764 32.8604 29.5278L29.8701 32.1461L28.438 31.7891ZM36.8847 33.8951L38.0517 29.2144L36.0956 28.7267L36.4092 27.4692L41.8001 28.8133L41.4866 30.0708L39.5188 29.5802L38.3518 34.2609L36.8847 33.8951Z" fill="white"/>
</g>
<defs>
<linearGradient id="paint0_linear" x1="20.1477" y1="6.469" x2="37.0179" y2="52.4795" gradientUnits="userSpaceOnUse">
<stop stop-color="#FFA96B"/>
<stop offset="1" stop-color="#EB7023"/>
</linearGradient>
<clipPath id="clip0">
<rect width="50" height="50" fill="white" transform="translate(12.7905) rotate(14)"/>
</clipPath>
</defs>
</svg>
