<svg width="20" height="18" viewBox="0 0 20 18" fill="none" xmlns="http://www.w3.org/2000/svg">
<path d="M5.63596 0.200195C2.74396 0.200195 0.400024 2.54413 0.400024 5.43613C0.400024 10.4701 6.2392 15.28 8.96721 17.4221C8.96981 17.4242 8.97241 17.4262 8.97502 17.4283C8.99372 17.443 9.01913 17.4639 9.03752 17.4783L9.03909 17.4768C9.31587 17.6859 9.65312 17.7994 10 17.8002C10.3475 17.7997 10.6853 17.6862 10.9625 17.4768V17.4783C10.9679 17.4741 10.9759 17.4685 10.9813 17.4643C10.9854 17.461 10.9912 17.4566 10.9953 17.4533C11.0006 17.4487 11.0058 17.444 11.011 17.4393C13.7305 15.3049 19.6 10.4821 19.6 5.43613C19.6 2.54413 17.2561 0.200195 14.3641 0.200195C11.6001 0.200195 10 2.6002 10 2.6002C10 2.6002 8.39996 0.200195 5.63596 0.200195Z" fill="#FF323D"/>
</svg>
